<svg xmlns="http://www.w3.org/2000/svg" width="2480" height="3508" viewBox="0 0 2480 3508">
  <rect width="2480" height="3508" fill="#ffffff"/>
  <g fill="#000000" font-family="Hiragino Sans, Noto Sans JP, sans-serif">
    <text x="100" y="105" font-size="54" font-weight="700">音響工学基礎 期末 持込用まとめ</text>
    <text x="100" y="150" font-size="25">第2〜12週ポイント・演習問題・2021期末過去問の頻出事項。設問に与えられた条件・近似値を最優先する。</text>
    <line x1="100" y1="180" x2="2380" y2="180" stroke="#000000" stroke-width="3"/>
    <line x1="1240" y1="220" x2="1240" y2="3370" stroke="#000000" stroke-width="2"/>

    <g font-size="27">
      <text x="100" y="245" font-size="34" font-weight="700">1. 最初に使う式・単位</text>
      <text x="120" y="286">・SI単位へ: cm → m は ×10^-2、ml → m³ は ×10^-6。</text>
      <text x="120" y="321">・音速: c = 331.5 + 0.61t [m/s]。15℃では約340 m/s。</text>
      <text x="120" y="356">・波の基本: c = fλ、f = 1/T、ω = 2πf、k = 2π/λ。</text>
      <text x="120" y="391">・空気中の音は縦波。音圧pは大気圧を基準にした圧力変化分。</text>
      <text x="120" y="426">・粒子速度u: 媒質粒子の運動速度。音響インピーダンス密度 Z = p/u。</text>
      <text x="120" y="461">・正弦波の実効値: p_rms = p_peak/√2 = 0.707 p_peak。</text>
      <text x="120" y="496">・特性インピーダンス: ρc。空気ではおよそ 415 Ns/m³。</text>
      <text x="120" y="531">・平面進行波: I = pv = p²/(ρc) = ρc u² [W/m²]。</text>
      <text x="120" y="566">・音の強さは音圧の2乗に比例。音圧が2倍なら強さは4倍。</text>

      <line x1="100" y1="592" x2="1180" y2="592" stroke="#000000" stroke-width="2"/>
      <text x="100" y="635" font-size="34" font-weight="700">2. レベル・デシベル計算</text>
      <text x="120" y="676">・レベルは「ある量と基準量の比の常用対数」。dBを直接足さない。</text>
      <text x="120" y="711">・音圧レベル: Lp = 20 log10(p/p0)、p0 = 2×10^-5 Pa。</text>
      <text x="120" y="746">・逆算: p = p0 × 10^(Lp/20)。70 dB → 約0.063 Pa、80 dB → 0.2 Pa。</text>
      <text x="120" y="781">・強さレベル: LI = 10 log10(I/I0)、I0 = 10^-12 W/m²。</text>
      <text x="120" y="816">・同じ無相関音を2つ: +3 dB。60 dB + 60 dB → 63 dB。</text>
      <text x="120" y="851">・一般式: Ltotal = 10 log10[Σ 10^(Li/10)]。</text>
      <text x="120" y="886">・60 dBと62 dB → 約64.1 dB。大きい方だけで近似しない。</text>
      <text x="120" y="921">・可聴の目安: 0 dB = 最小可聴値、会話は約60 dB、痛覚閾は約130 dB。</text>

      <line x1="100" y1="947" x2="1180" y2="947" stroke="#000000" stroke-width="2"/>
      <text x="100" y="990" font-size="34" font-weight="700">3. 周波数分析・伝搬</text>
      <text x="120" y="1031">・純音: 1つの周波数の正弦波。楽音の基音以外の成分は倍音。</text>
      <text x="120" y="1066">・波面: 同じ位相の点を連ねた面。点音源では球面波になる。</text>
      <text x="120" y="1101">・球面波: p ∝ 1/r。距離2倍で -6 dB、3倍で約-9.5 dB、10倍で-20 dB。</text>
      <text x="120" y="1136">・一般: L2 - L1 = -20 log10(r2/r1)。20 dB低下なら距離は10倍。</text>
      <text x="120" y="1171">・理想平面波: 波面が広がらず、距離による音圧レベルの低下はない。</text>
      <text x="120" y="1206">・1オクターブ: 周波数比2。中心fm: 下限 fm/√2、上限 fm√2、幅0.707fm。</text>
      <text x="120" y="1241">・例 fm=1000 Hz: 下限707 Hz、上限1414 Hz、幅707 Hz。</text>
      <text x="120" y="1276">・例 fm=4000 Hz: 下限2828 Hz、上限5657 Hz、幅2828 Hz。</text>

      <line x1="100" y1="1302" x2="1180" y2="1302" stroke="#000000" stroke-width="2"/>
      <text x="100" y="1345" font-size="34" font-weight="700">4. 共鳴・ヘルムホルツ共鳴器</text>
      <text x="120" y="1386">・共振周波数ではインピーダンス絶対値が最小。慣性とばねの成分が相殺する。</text>
      <text x="120" y="1421">・ヘルムホルツ: fr = c/(2π) √[S/(lV)]、S = πr²。</text>
      <text x="120" y="1456">・必ずr, lをm、Vをm³に直す。端補正は「無視」とあれば入れない。</text>
      <text x="120" y="1491">・PET例: r=1.25 cm, l=2.5 cm, V=500 ml, c≈340 → 約340 Hz。</text>
      <text x="120" y="1526">・別例: r=1 cm, l=2 cm, V=250 ml, c=340 → 約430 Hz。</text>
      <text x="120" y="1561">・容積Vが小さい・口面積Sが大きいほど高く、首lが長いほど低くなる。</text>

      <line x1="100" y1="1587" x2="1180" y2="1587" stroke="#000000" stroke-width="2"/>
      <text x="100" y="1630" font-size="34" font-weight="700">5. 音の大きさ・高さ・音色</text>
      <text x="120" y="1671">・ラウドネス: 人が知覚する音の大きさ。音圧だけでなく周波数にも依存する。</text>
      <text x="120" y="1706">・等ラウドネス曲線: 同じ大きさに聞こえる各周波数の音圧レベルを結ぶ。</text>
      <text x="120" y="1741">・1000 Hz・40 dB = 40 phon。低周波ほど同じ大きさに高いdBが必要。</text>
      <text x="120" y="1776">・過去問値: 1000 Hz・40 dBと同じ大きさの125 Hzは約60 dB。</text>
      <text x="120" y="1811">・演習値: 同じ条件の250 Hzは約50 dB、必要音圧は1000 Hzの約3倍。</text>
      <text x="120" y="1846">・ピッチを主に支配する物理量は基本周波数f0。純音の弁別閾は約0.2%。</text>
      <text x="120" y="1881">・平均律: f = fref × 2^(n/12)。A=440 Hzの上のD (n=5) は約587 Hz。</text>
      <text x="120" y="1916">・A=440 Hzの上のE (n=7) は約659 Hz。音色は主にスペクトル構造に依存。</text>

      <line x1="100" y1="1942" x2="1180" y2="1942" stroke="#000000" stroke-width="2"/>
      <text x="100" y="1985" font-size="34" font-weight="700">6. 過去問の即答チェック</text>
      <text x="120" y="2026">・音波により知覚したものの総体 = 音像。音像の方向・距離の知覚 = 音像定位。</text>
      <text x="120" y="2061">・物理現象としての音 = 弾性体を伝搬する振動。空気中では縦波。</text>
      <text x="120" y="2096">・空気中の音圧 = 大気圧からの圧力変化分。温度10℃上昇で音速は約6.1 m/s増加。</text>
    </g>

    <g font-size="27">
      <text x="1300" y="245" font-size="34" font-weight="700">7. 聴覚・マスキング</text>
      <text x="1320" y="286">・弁別閾: 刺激の変化を知覚できる最小の差異。</text>
      <text x="1320" y="321">・ウェーバー・フェヒナーの法則: 感覚量は刺激量の対数に比例する。</text>
      <text x="1320" y="356">・マスキング: 別の音の存在により、目的音の聞き取りが妨げられる現象。</text>
      <text x="1320" y="391">・マスカ: 信号を妨害する音。マスキング量: 最小可聴値の上昇量。</text>
      <text x="1320" y="426">・マスカと信号の周波数が近いほど、基底膜の興奮が重なり大きくなりやすい。</text>
      <text x="1320" y="461">・過去問: マスカの周波数が信号より高い場合、低い場合よりマスキング量は大きい。</text>
      <text x="1320" y="496">・臨界帯域幅は高周波ほど広い。目安: 150 Hzで約100 Hz、5 kHzで約1 kHz。</text>
      <text x="1320" y="531">・マスキングはMP3/AAC/MPEGで、聞こえにくい成分を減らす知覚符号化に利用される。</text>

      <line x1="1300" y1="557" x2="2380" y2="557" stroke="#000000" stroke-width="2"/>
      <text x="1300" y="600" font-size="34" font-weight="700">8. 空間音響・方向知覚</text>
      <text x="1320" y="641">・空間インパルス応答: 部屋の中を音が伝達する際の時間特性。</text>
      <text x="1320" y="676">・頭部インパルス応答: 頭や耳介による時間領域の応答。</text>
      <text x="1320" y="711">・HRTF（頭部伝達関数）: 頭・耳介が方向ごとに与える周波数特性。</text>
      <text x="1320" y="746">・頭部の影響を無視したHRTFは0 dB。正面方向は4 kHz付近にピーク。</text>
      <text x="1320" y="781">・側方音源: 音源側の耳の振幅が反対側より大きい。</text>
      <text x="1320" y="816">・正中面で正面→上方: ノッチ周波数は高くなる。</text>
      <text x="1320" y="851">・左右の手掛かり: 両耳間時間差ITD、両耳間レベル差ILD。</text>
      <text x="1320" y="886">・前後・上下の手掛かり: 耳介によるスペクトルキュー（ピーク・ノッチ）。</text>
      <text x="1320" y="921">・コーン状の混同: 両耳間差だけでは前後・上下方向を一意に決められない。</text>
      <text x="1320" y="956">・合成音像: 2つのスピーカーのレベル差で、その間の位置に1つの音像を作れる。</text>

      <line x1="1300" y1="982" x2="2380" y2="982" stroke="#000000" stroke-width="2"/>
      <text x="1300" y="1025" font-size="34" font-weight="700">9. 計算の解き方テンプレート</text>
      <text x="1320" y="1066">[音圧レベル] 1) p0を確認 2) p = p0×10^(Lp/20) 3) Paで答える。</text>
      <text x="1320" y="1101">[球面波] 1) r比を作る 2) -20log10(r2/r1) 3) dB符号を確認。</text>
      <text x="1320" y="1136">[合成dB] 1) 10^(Li/10)へ戻す 2) 足す 3) 10log10でdBに戻す。</text>
      <text x="1320" y="1171">[オクターブ] 1) fm/√2 と fm√2 2) 引いて帯域幅 3) Hzで丸める。</text>
      <text x="1320" y="1206">[ヘルムホルツ] 1) r,l,VをSIへ 2) S=πr² 3) frの式に代入。</text>
      <text x="1320" y="1241">[平均律] 1) 基準音を確認 2) 半音数n 3) 2^(n/12)を掛ける。</text>
      <text x="1320" y="1276">[等ラウドネス] 1) 1000 Hzのphonを基準 2) 曲線上のdBを読む。</text>

      <line x1="1300" y1="1302" x2="2380" y2="1302" stroke="#000000" stroke-width="2"/>
      <text x="1300" y="1345" font-size="34" font-weight="700">10. 用語の取り違え防止</text>
      <text x="1320" y="1386">・音圧 [Pa] / 音圧レベル [dB] / 音の強さ [W/m²] を混同しない。</text>
      <text x="1320" y="1421">・音像 = 知覚された総体。音源 = 物理的に音を出すもの。</text>
      <text x="1320" y="1456">・ラウドネス = 大きさの知覚。ピッチ = 高さの知覚。音色 = スペクトル等の違い。</text>
      <text x="1320" y="1491">・球面波 = 距離減衰あり。理想平面波 = 距離減衰なし。</text>
      <text x="1320" y="1526">・インピーダンス密度Z = p/u。特性インピーダンスはρc。</text>
      <text x="1320" y="1561">・HRTF = 周波数領域の方向特性、HRIR = 時間領域の応答。</text>
      <text x="1320" y="1596">・等ラウドネス曲線 = 音圧レベルと周波数から同じ大きさを読む曲線。</text>
      <text x="1320" y="1631">・臨界帯域 = 聴覚上の周波数帯域。マスキングと結び付けて考える。</text>

      <line x1="1300" y1="1657" x2="2380" y2="1657" stroke="#000000" stroke-width="2"/>
      <text x="1300" y="1700" font-size="34" font-weight="700">11. 直前確認リスト</text>
      <text x="1320" y="1741">□ c=fλ、c=331.5+0.61t、実効値=最大値/√2 を書ける。</text>
      <text x="1320" y="1776">□ Lp=20log10(p/p0)、I=p²/(ρc)、無相関音の合成を区別できる。</text>
      <text x="1320" y="1811">□ 球面波の -6 dB/距離2倍、平面波の距離減衰なしを区別できる。</text>
      <text x="1320" y="1846">□ オクターブ下限・上限、ヘルムホルツのSI換算を確認した。</text>
      <text x="1320" y="1881">□ 等ラウドネス、マスキング、臨界帯域、ピッチの基本周波数を説明できる。</text>
      <text x="1320" y="1916">□ HRTF、4 kHzピーク、ノッチ、ITD/ILD、コーン状の混同を確認した。</text>
      <text x="1320" y="1951">□ 選択肢では「単位」「比例/反比例」「音圧とdB」「球面波と平面波」を先に確認する。</text>

      <line x1="1300" y1="1977" x2="2380" y2="1977" stroke="#000000" stroke-width="2"/>
      <text x="1300" y="2020" font-size="34" font-weight="700">12. 数値の早見</text>
      <text x="1320" y="2061">p0 = 2×10^-5 Pa / I0 = 10^-12 W/m² / 空気のρc ≈ 415 Ns/m³</text>
      <text x="1320" y="2096">20 Hzの波長（c=343）≈17 m / 20 kHzの波長 ≈0.017 m</text>
      <text x="1320" y="2131">距離: 2倍 -6 dB / 3倍 -9.5 dB / 10倍 -20 dB</text>
      <text x="1320" y="2166">dB合成: 同レベル2音 +3 dB / 60+62 dB ≈64.1 dB</text>
      <text x="1320" y="2201">HRTF正面ピーク ≈4 kHz / ピッチ弁別閾 ≈0.2 %</text>
    </g>

    <rect x="100" y="3290" width="2280" height="90" fill="none" stroke="#000000" stroke-width="2"/>
    <text x="125" y="3347" font-size="25">試験用メモ: 問題文に別の定義・端補正・音速・近似条件が指定されている場合は、必ずその指定を優先する。</text>
  </g>
</svg>
